<svg width="192" height="192" viewBox="0 0 192 192" fill="none" xmlns="http://www.w3.org/2000/svg">
<rect width="192" height="192" fill="#E1E1E1"/>
<path d="M51.7344 60.75L63.6875 116.344L95 60.75H106.578L94.7188 129H85.9531L90.6406 102L96.2188 74.5312L65.2812 129H58.5312L46.3438 73.4531L42.125 102.891L37.5781 129H28.7656L40.625 60.75H51.7344ZM148.906 60.75H157.719L149.516 109.078C148.609 115.516 146 120.656 141.688 124.5C137.375 128.312 132 130.156 125.562 130.031C119.562 129.906 114.922 128.094 111.641 124.594C108.359 121.094 106.906 116.281 107.281 110.156H116.047C115.703 113.906 116.406 116.906 118.156 119.156C119.906 121.375 122.531 122.516 126.031 122.578C129.875 122.703 133.125 121.5 135.781 118.969C138.438 116.438 140.062 113.156 140.656 109.125L148.906 60.75Z" fill="#056274" fill-opacity="0.87"/>
</svg>
